<svg width="30" height="30" viewBox="0 0 30 30" fill="none" xmlns="http://www.w3.org/2000/svg">
<path d="M27.6562 0H2.34375C1.04875 0 0 1.05 0 2.34375V27.6562C0 28.9513 1.05 30 2.34375 30H27.6562C28.9513 30 30 28.95 30 27.6562V2.34375C30 1.04875 28.95 0 27.6562 0ZM15 23.4375C14.2612 23.4375 13.5375 23.3862 12.835 23.2875C12.1325 23.7825 8.06875 26.6362 7.685 26.69C7.685 26.69 7.52875 26.7512 7.395 26.6725C7.26125 26.5938 7.285 26.3862 7.285 26.3862C7.325 26.1112 8.33875 22.6138 8.525 21.97C5.09375 20.27 2.8125 17.2587 2.8125 13.8287C2.8125 8.52125 8.26875 4.21875 15 4.21875C21.7313 4.21875 27.1875 8.52125 27.1875 13.8287C27.1875 19.135 21.7313 23.4375 15 23.4375ZM10.0625 12.3337H8.965V16.5112C8.965 16.8813 8.65 17.1825 8.26125 17.1825C7.8725 17.1825 7.55875 16.8825 7.55875 16.5112V12.3337H6.46125C6.28752 12.3209 6.12508 12.2428 6.00653 12.1152C5.88797 11.9876 5.82208 11.8198 5.82208 11.6456C5.82208 11.4714 5.88797 11.3037 6.00653 11.176C6.12508 11.0484 6.28752 10.9703 6.46125 10.9575H10.0612C10.235 10.9703 10.3974 11.0484 10.516 11.176C10.6345 11.3037 10.7004 11.4714 10.7004 11.6456C10.7004 11.8198 10.6345 11.9876 10.516 12.1152C10.3974 12.2428 10.235 12.3209 10.0612 12.3337H10.0625ZM23.7963 16.03C23.8524 16.1035 23.8933 16.1875 23.9167 16.2769C23.9401 16.3664 23.9455 16.4597 23.9325 16.5513C23.9197 16.6426 23.8889 16.7305 23.8419 16.8099C23.7949 16.8893 23.7326 16.9585 23.6588 17.0138C23.5373 17.1063 23.3889 17.1563 23.2363 17.1562C23.1271 17.1568 23.0194 17.1318 22.9217 17.0832C22.824 17.0345 22.7391 16.9637 22.6737 16.8763L21.025 14.6925L20.7812 14.9363V16.47C20.7809 16.6563 20.7068 16.8349 20.5752 16.9668C20.4436 17.0987 20.2651 17.1731 20.0788 17.1737C19.8921 17.1737 19.7131 17.0996 19.5811 16.9676C19.4491 16.8356 19.375 16.6566 19.375 16.47V11.66C19.3826 11.4786 19.4601 11.3073 19.5911 11.1817C19.7221 11.056 19.8966 10.9859 20.0781 10.9859C20.2596 10.9859 20.4341 11.056 20.5652 11.1817C20.6962 11.3073 20.7736 11.4786 20.7812 11.66V13.1725L22.7437 11.21C22.795 11.1594 22.8557 11.1195 22.9224 11.0925C22.9891 11.0654 23.0605 11.0518 23.1325 11.0525C23.3075 11.0525 23.485 11.1287 23.6175 11.2612C23.7381 11.3795 23.8115 11.5378 23.8237 11.7062C23.8302 11.7847 23.8197 11.8635 23.793 11.9375C23.7663 12.0115 23.7239 12.0789 23.6687 12.135L22.0662 13.7362L23.7963 16.03ZM13.3588 11.6525C13.24 11.315 12.88 10.9675 12.4213 10.9575C11.9637 10.9675 11.6037 11.315 11.485 11.6512L9.80375 16.0775C9.59 16.74 9.77625 16.9875 9.97 17.0775C10.1101 17.1413 10.2623 17.1741 10.4163 17.1737C10.71 17.1737 10.9337 17.055 11.0012 16.8638L11.35 15.9513H13.4937L13.8425 16.8638C13.91 17.055 14.1337 17.1737 14.4275 17.1737C14.5815 17.1736 14.7337 17.1403 14.8738 17.0763C15.0675 16.9875 15.2537 16.7413 15.04 16.0763L13.3588 11.6525ZM11.72 14.7063L12.4225 12.7112L13.1237 14.7063H11.72ZM19.1012 16.435C19.0973 16.6098 19.0242 16.776 18.8978 16.8969C18.7715 17.0178 18.6023 17.0837 18.4275 17.08H16.1725C16.0858 17.082 15.9996 17.0669 15.9188 17.0355C15.8379 17.0042 15.7641 16.9572 15.7014 16.8973C15.6387 16.8375 15.5884 16.7658 15.5534 16.6865C15.5185 16.6071 15.4994 16.5217 15.4975 16.435V11.66C15.4975 11.2725 15.82 10.9575 16.2162 10.9575C16.6125 10.9575 16.9338 11.2725 16.9338 11.66V15.7913H18.4275C18.7987 15.7913 19.1012 16.08 19.1012 16.435Z" fill="#F7E43E"/>
</svg>
