<svg width="67" height="70" viewBox="0 0 67 70" fill="none" xmlns="http://www.w3.org/2000/svg">
<g filter="url(#filter0_d_263_538)">
<circle cx="4" cy="4" r="2.5" transform="matrix(1 0 0 -1 29 30)" fill="#F11A7B" stroke="#F11A7B" stroke-width="3"/>
<rect x="31.5" y="36.5" width="3" height="24" rx="1.5" fill="#F11A7B" stroke="#F11A7B" stroke-width="3"/>
<path fill-rule="evenodd" clip-rule="evenodd" d="M50.5719 12.7808C50.2395 12.8729 49.9299 13.0335 49.6633 13.2525L39.5687 21.562L39.4958 21.6495C39.3763 21.8625 39.5863 22.16 39.8575 22.0579L52.1017 17.4729L52.3933 17.3416C52.6977 17.1793 52.9648 16.9551 53.1773 16.6833C53.3897 16.4115 53.5429 16.0983 53.627 15.7637C53.7111 15.4291 53.7241 15.0806 53.6653 14.7407C53.6065 14.4008 53.4772 14.0769 53.2857 13.79C53.0941 13.5031 52.8446 13.2595 52.5532 13.0749C52.2618 12.8902 51.9349 12.7687 51.5937 12.7181C51.2525 12.6674 50.9044 12.6888 50.5719 12.7808ZM48.535 1.04964C48.3286 0.756139 48.0607 0.511122 47.75 0.331631C47.4393 0.152037 47.0932 0.0422865 46.7358 0.0100119C46.3784 -0.0222627 46.0183 0.0237143 45.6805 0.144745C45.3426 0.265775 45.0352 0.458953 44.7796 0.710839C44.524 0.962726 44.3264 1.26727 44.2004 1.6033L39.6154 13.8475C39.4988 14.1566 39.9042 14.39 40.1112 14.1333L48.4208 4.04163C48.649 3.76471 48.8141 3.4414 48.9047 3.09421C48.9952 2.74701 49.009 2.38425 48.9452 2.03117C48.8814 1.67808 48.7414 1.34314 48.535 1.04964ZM60.522 23.2066C60.1752 23.112 59.8119 23.0942 59.4575 23.1545L46.56 25.3041C46.2333 25.3566 46.2333 25.8233 46.56 25.8787L59.4575 28.0254C59.8119 28.0857 60.1752 28.0679 60.522 27.9733C60.8688 27.8787 61.1908 27.7095 61.4655 27.4776C61.7402 27.2457 61.961 26.9567 62.1124 26.6306C62.2638 26.3046 62.3423 25.9495 62.3423 25.59C62.3423 25.2305 62.2638 24.8753 62.1124 24.5493C61.961 24.2232 61.7402 23.9342 61.4655 23.7023C61.1908 23.4704 60.8688 23.3012 60.522 23.2066ZM40.0267 36.9708C39.8108 36.8512 39.5133 37.0641 39.6125 37.3325L44.2004 49.5766L44.3317 49.8712C44.4948 50.1744 44.7195 50.4401 44.9914 50.6513C45.2632 50.8625 45.5763 51.0146 45.9103 51.0978C46.2444 51.1809 46.5922 51.1933 46.9313 51.1342C47.2705 51.0751 47.5935 50.9457 47.8798 50.7544C48.166 50.5631 48.4091 50.3141 48.5935 50.0234C48.7778 49.7326 48.8993 49.4065 48.9503 49.0661C49.0012 48.7256 48.9804 48.3782 48.8893 48.0462C48.7981 47.7143 48.6385 47.405 48.4208 47.1383L40.1142 37.0466L40.0267 36.9708ZM52.1017 33.7071L39.8575 29.1191V29.122C39.5483 29.0054 39.315 29.4108 39.5717 29.6179L49.6633 37.9275C49.9403 38.1553 50.2636 38.3201 50.6107 38.4104C50.9577 38.5007 51.3203 38.5144 51.6732 38.4504C52.0261 38.3865 52.3609 38.2465 52.6542 38.0401C52.9475 37.8337 53.1924 37.566 53.3718 37.2555C53.5512 36.9449 53.6609 36.599 53.6931 36.2418C53.7254 35.8846 53.6795 35.5247 53.5586 35.1871C53.4378 34.8494 53.2448 34.5421 52.9932 34.2865C52.7416 34.0309 52.4374 33.8332 52.1017 33.7071ZM22.1329 49.5766L26.7179 37.3325C26.8346 37.0233 26.4292 36.79 26.2221 37.0466L17.9096 47.1383C17.6831 47.4156 17.5196 47.7387 17.4304 48.0854C17.3412 48.4321 17.3284 48.794 17.3928 49.1462C17.4573 49.4983 17.5976 49.8322 17.8039 50.1248C18.0102 50.4173 18.2776 50.6616 18.5876 50.8406C18.8977 51.0196 19.2429 51.129 19.5994 51.1614C19.9559 51.1938 20.3152 51.1483 20.6524 51.0281C20.9896 50.9079 21.2967 50.7158 21.5523 50.4652C21.8079 50.2146 22.006 49.9114 22.1329 49.5766ZM16.67 37.9304L26.7646 29.6179C27.0183 29.4108 26.785 29.0054 26.4758 29.122L14.2317 33.7071C13.8969 33.8339 13.5937 34.032 13.3431 34.2877C13.0925 34.5433 12.9004 34.8503 12.7802 35.1875C12.66 35.5247 12.6145 35.884 12.6469 36.2406C12.6793 36.5971 12.7888 36.9423 12.9677 37.2523C13.1467 37.5624 13.391 37.8298 13.6835 38.0361C13.9761 38.2424 14.31 38.3826 14.6621 38.4471C15.0143 38.5116 15.3762 38.4988 15.7229 38.4096C16.0696 38.3204 16.3927 38.1569 16.67 37.9304ZM6.87583 28.0283C5.37083 28.2762 4 27.1183 4 25.5929V25.59C4.00022 25.2314 4.0785 24.8771 4.22941 24.5518C4.38033 24.2265 4.60025 23.938 4.8739 23.7062C5.14755 23.4745 5.46837 23.3051 5.81408 23.2098C6.15979 23.1146 6.5221 23.0957 6.87583 23.1545L19.7733 25.3041C20.1 25.3566 20.1 25.8233 19.7733 25.8787L6.87583 28.0283ZM13.6125 13.1858C13.3477 13.3853 13.1258 13.6362 12.96 13.9233C12.7804 14.234 12.6707 14.5801 12.6384 14.9375C12.6061 15.2949 12.6521 15.655 12.7731 15.9928C12.8941 16.3307 13.0873 16.6381 13.3392 16.8937C13.5911 17.1493 13.8956 17.3469 14.2317 17.4729L26.4758 22.0608L26.5867 22.0783C26.8346 22.0754 26.9862 21.7429 26.7617 21.562L16.67 13.2525L16.4075 13.0629C16.1262 12.8873 15.8125 12.7702 15.485 12.7184C15.1575 12.6667 14.8229 12.6814 14.5012 12.7617C14.1795 12.842 13.8773 12.9862 13.6125 13.1858ZM26.7179 13.8475L22.1329 1.6033C22.006 1.26855 21.8079 0.965368 21.5523 0.714752C21.2967 0.464137 20.9896 0.272073 20.6524 0.151858C20.3152 0.0316437 19.9559 -0.0138494 19.5994 0.0185283C19.2429 0.050906 18.8977 0.160381 18.5876 0.339375C18.2776 0.518368 18.0102 0.762602 17.8039 1.05517C17.5976 1.34773 17.4573 1.68164 17.3928 2.03377C17.3284 2.3859 17.3412 2.74784 17.4304 3.09453C17.5196 3.44122 17.6831 3.76438 17.9096 4.04163L26.2221 14.1362C26.4292 14.39 26.8346 14.1566 26.7179 13.8475ZM30.7869 4.07264C30.6908 4.4175 30.6708 4.77912 30.7283 5.13246H30.7313L32.8808 18.03C32.9333 18.3566 33.4 18.3566 33.4554 18.03L35.605 5.13246C35.6625 4.77912 35.6425 4.4175 35.5465 4.07264C35.4504 3.72778 35.2805 3.40793 35.0486 3.13521C34.8167 2.8625 34.5283 2.64345 34.2033 2.49323C33.8784 2.343 33.5247 2.2652 33.1667 2.2652C32.8087 2.2652 32.455 2.343 32.13 2.49323C31.8051 2.64345 31.5167 2.8625 31.2847 3.13521C31.0528 3.40793 30.8829 3.72778 30.7869 4.07264ZM32.206 41.2756C32.2042 40.7223 32.2024 40.1999 32.2144 39.6995C32.2426 40.4132 32.2395 41.1294 32.2076 41.8462L32.2069 41.5739L32.2061 41.2886L32.206 41.2756Z" fill="#F11A7B"/>
</g>
<defs>
<filter id="filter0_d_263_538" x="0" y="0" width="66.3423" height="70" filterUnits="userSpaceOnUse" color-interpolation-filters="sRGB">
<feFlood flood-opacity="0" result="BackgroundImageFix"/>
<feColorMatrix in="SourceAlpha" type="matrix" values="0 0 0 0 0 0 0 0 0 0 0 0 0 0 0 0 0 0 127 0" result="hardAlpha"/>
<feOffset dy="4"/>
<feGaussianBlur stdDeviation="2"/>
<feComposite in2="hardAlpha" operator="out"/>
<feColorMatrix type="matrix" values="0 0 0 0 0 0 0 0 0 0 0 0 0 0 0 0 0 0 0.25 0"/>
<feBlend mode="normal" in2="BackgroundImageFix" result="effect1_dropShadow_263_538"/>
<feBlend mode="normal" in="SourceGraphic" in2="effect1_dropShadow_263_538" result="shape"/>
</filter>
</defs>
</svg>
