<svg width="180" height="180" viewBox="0 0 180 180" fill="none" xmlns="http://www.w3.org/2000/svg">
<g clip-path="url(#clip0_14_3422)">
<path d="M103.065 121.508C101.363 116.97 106.973 113.483 110.295 116.58L110.753 117.075L132.128 143.025C133.025 144.126 133.681 145.403 134.051 146.774C134.422 148.145 134.499 149.578 134.279 150.981C134.058 152.384 133.544 153.724 132.77 154.915C131.996 156.106 130.98 157.12 129.788 157.892C128.596 158.663 127.255 159.175 125.851 159.393C124.448 159.611 123.015 159.531 121.645 159.158C120.274 158.785 118.998 158.127 117.9 157.228C116.801 156.328 115.904 155.207 115.268 153.938L114.863 152.993L103.065 121.508ZM107.88 95.3702L108.518 95.5652L140.003 107.363C141.331 107.863 142.539 108.639 143.547 109.637C144.556 110.636 145.343 111.836 145.857 113.16C146.37 114.483 146.6 115.9 146.529 117.317C146.459 118.735 146.09 120.122 145.448 121.388C144.805 122.654 143.903 123.77 142.8 124.664C141.698 125.558 140.419 126.209 139.047 126.576C137.676 126.942 136.243 127.016 134.841 126.791C133.439 126.567 132.101 126.049 130.913 125.273L130.035 124.62L104.085 103.253C100.335 100.178 103.448 94.3428 107.88 95.3778V95.3702ZM168.75 90.0003C168.75 95.9177 163.725 100.493 157.95 100.08L156.983 99.9678L123.825 94.4403C119.085 93.6527 118.823 87.1803 123.03 85.7552L123.825 85.5602L156.983 80.0328C158.431 79.7907 159.915 79.8674 161.33 80.2574C162.746 80.6473 164.06 81.3412 165.18 82.2908C166.3 83.2403 167.2 84.4226 167.816 85.7554C168.433 87.0881 168.752 88.5393 168.75 90.0078V90.0003ZM145.2 58.1253C148.148 63.2253 146.1 69.6828 140.94 72.2253L139.995 72.6378L108.51 84.4353C103.973 86.1378 100.485 80.5278 103.583 77.2053L104.07 76.7478L130.028 55.3728C131.161 54.4399 132.483 53.7652 133.904 53.3955C135.324 53.0258 136.808 52.97 138.252 53.2319C139.696 53.4939 141.066 54.0674 142.265 54.9125C143.465 55.7575 144.467 56.8539 145.2 58.1253ZM129.375 21.8028C134.46 24.7428 135.923 31.3128 132.773 36.0978L132.12 36.9753L110.753 62.9253C107.678 66.6753 101.842 63.5628 102.878 59.1303L103.065 58.4928L114.863 27.0003C115.377 25.6262 116.185 24.3807 117.23 23.3504C118.275 22.3202 119.531 21.5299 120.913 21.0345C122.294 20.5392 123.766 20.3506 125.228 20.482C126.689 20.6134 128.104 21.0615 129.375 21.7953V21.8028ZM69.2475 117.075C72.3225 113.325 78.1575 116.438 77.1225 120.87L76.935 121.508L65.1375 153C64.6368 154.329 63.8618 155.536 62.8629 156.545C61.8641 157.554 60.6639 158.341 59.3406 158.854C58.0173 159.368 56.6006 159.597 55.1828 159.527C53.765 159.456 52.378 159.088 51.1121 158.445C49.8463 157.803 48.7301 156.901 47.8362 155.798C46.9424 154.695 46.2909 153.417 45.9244 152.045C45.5579 150.674 45.4845 149.241 45.709 147.839C45.9336 146.437 46.451 145.099 47.2275 143.91L47.8725 143.033L69.2475 117.083V117.075ZM76.41 102.795L75.915 103.253L49.965 124.628C48.8646 125.525 47.5873 126.181 46.2164 126.551C44.8456 126.922 43.412 127 42.0092 126.779C40.6064 126.558 39.2659 126.044 38.0752 125.27C36.8844 124.497 35.8702 123.481 35.0986 122.288C34.327 121.096 33.8154 119.755 33.5971 118.352C33.3789 116.948 33.4589 115.515 33.832 114.145C34.2051 112.775 34.8629 111.499 35.7624 110.4C36.6619 109.301 37.783 108.404 39.0525 107.768L39.9975 107.363L71.4825 95.5652C76.02 93.8627 79.5075 99.4728 76.41 102.795ZM22.05 79.9203L23.0175 80.0328L56.175 85.5602C60.915 86.3553 61.1775 92.8203 56.97 94.2453L56.175 94.4403L23.0175 99.9678C21.6119 100.2 20.1731 100.132 18.7955 99.7692C17.418 99.4061 16.1328 98.7557 15.0243 97.8607C13.9159 96.9658 13.0093 95.8465 12.364 94.5764C11.7187 93.3063 11.3493 91.9141 11.2801 90.4911C11.2109 89.0682 11.4434 87.6467 11.9624 86.32C12.4814 84.9932 13.2752 83.7913 14.2915 82.793C15.3079 81.7947 16.5239 81.0227 17.8597 80.5276C19.1956 80.0325 20.621 79.8255 22.0425 79.9203H22.05ZM49.0875 54.7278L49.965 55.3803L75.915 76.7478C79.665 79.8228 76.5525 85.6578 72.12 84.6227L71.4825 84.4353L39.9975 72.6378C38.6692 72.137 37.4613 71.362 36.4527 70.3632C35.444 69.3644 34.6571 68.1642 34.1434 66.8409C33.6296 65.5176 33.4005 64.1008 33.471 62.683C33.5415 61.2653 33.9099 59.8782 34.5524 58.6124C35.1948 57.3466 36.0969 56.2303 37.1996 55.3365C38.3024 54.4426 39.5812 53.7912 40.9526 53.4247C42.324 53.0581 43.7572 52.9848 45.1589 53.2093C46.5606 53.4338 47.8992 53.9512 49.0875 54.7278ZM64.7325 26.0628L65.1375 27.0078L76.935 58.4928C78.6375 63.0378 73.0275 66.5178 69.705 63.4203L69.2475 62.9328L47.8725 36.9753C46.9749 35.8748 46.3195 34.5975 45.9488 33.2267C45.5782 31.8559 45.5007 30.4223 45.7214 29.0195C45.9422 27.6167 46.4562 26.2762 47.2299 25.0854C48.0036 23.8947 49.0197 22.8804 50.2118 22.1088C51.404 21.3372 52.7454 20.8256 54.1486 20.6074C55.5518 20.3891 56.9852 20.4692 58.3554 20.8423C59.7255 21.2154 61.0017 21.8731 62.1005 22.7727C63.1993 23.6722 64.0961 24.7933 64.7325 26.0628ZM90 26.2503C83.76 26.2503 79.005 31.8528 80.0325 38.0178L85.56 71.1753C86.4 76.1928 93.6 76.1928 94.44 71.1753L99.9675 38.0178C100.209 36.57 100.133 35.0869 99.7434 33.6717C99.3539 32.2565 98.6606 30.9432 97.7119 29.8232C96.7632 28.7031 95.5818 27.8033 94.25 27.1862C92.9181 26.5692 91.4678 26.2498 90 26.2503ZM94.44 108.825C93.6 103.808 86.4 103.808 85.56 108.825L80.0325 141.983C79.7936 143.429 79.8724 144.91 80.2634 146.323C80.6543 147.736 81.3481 149.047 82.2964 150.165C83.2448 151.282 84.4251 152.18 85.7554 152.796C87.0857 153.412 88.5341 153.731 90 153.731C91.466 153.731 92.9143 153.412 94.2446 152.796C95.5749 152.18 96.7552 151.282 97.7036 150.165C98.6519 149.047 99.3457 147.736 99.7366 146.323C100.128 144.91 100.206 143.429 99.9675 141.983L94.44 108.825Z" fill="#F11A7B"/>
</g>
<defs>
<clipPath id="clip0_14_3422">
<rect width="180" height="180" fill="white"/>
</clipPath>
</defs>
</svg>
