<svg width="77" height="74" viewBox="0 0 77 74" fill="none" xmlns="http://www.w3.org/2000/svg">
<rect width="77" height="74" rx="4" fill="#BDBDBD"/>
<path fill-rule="evenodd" clip-rule="evenodd" d="M25.6667 21.5833C25.6667 18.3123 27.0187 15.1753 29.4255 12.8623C31.8322 10.5494 35.0964 9.25 38.5 9.25C41.9036 9.25 45.1678 10.5494 47.5745 12.8623C49.9813 15.1753 51.3333 18.3123 51.3333 21.5833C51.3333 24.8543 49.9813 27.9914 47.5745 30.3043C45.1678 32.6173 41.9036 33.9167 38.5 33.9167C35.0964 33.9167 31.8322 32.6173 29.4255 30.3043C27.0187 27.9914 25.6667 24.8543 25.6667 21.5833ZM25.6667 40.0833C21.4122 40.0833 17.3319 41.7076 14.3235 44.5988C11.3151 47.49 9.625 51.4112 9.625 55.5C9.625 57.9533 10.6391 60.306 12.4441 62.0407C14.2491 63.7754 16.6973 64.75 19.25 64.75H57.75C60.3027 64.75 62.7509 63.7754 64.5559 62.0407C66.3609 60.306 67.375 57.9533 67.375 55.5C67.375 51.4112 65.6849 47.49 62.6765 44.5988C59.6681 41.7076 55.5878 40.0833 51.3333 40.0833H25.6667Z" fill="white"/>
</svg>
