<svg width="24" height="27" viewBox="0 0 24 27" fill="none" xmlns="http://www.w3.org/2000/svg">
<path d="M17.82 13.7993C17.6326 13.613 17.3792 13.5085 17.115 13.5085C16.8508 13.5085 16.5974 13.613 16.41 13.7993C16.2237 13.9867 16.1192 14.2401 16.1192 14.5043C16.1192 14.7685 16.2237 15.0219 16.41 15.2093L20.2 18.9993H2V1.7793C2 1.51408 1.89464 1.25973 1.70711 1.07219C1.51957 0.884654 1.26522 0.779297 1 0.779297C0.734784 0.779297 0.48043 0.884654 0.292893 1.07219C0.105357 1.25973 0 1.51408 0 1.7793V18.9993C0 19.5297 0.210714 20.0384 0.585786 20.4135C0.960859 20.7886 1.46957 20.9993 2 20.9993H20.15L16.41 24.7493C16.2237 24.9367 16.1192 25.1901 16.1192 25.4543C16.1192 25.7185 16.2237 25.9719 16.41 26.1593C16.5963 26.344 16.8477 26.4482 17.11 26.4493C17.2416 26.4501 17.3721 26.4248 17.4939 26.3751C17.6157 26.3253 17.7266 26.252 17.82 26.1593L24 19.9993L17.82 13.7993Z" fill="black"/>
</svg>
